<?xml version="1.0" standalone="no"?>
<!DOCTYPE svg PUBLIC "-//W3C//DTD SVG 20010904//EN"
 "http://www.w3.org/TR/2001/REC-SVG-20010904/DTD/svg10.dtd">
<svg version="1.0" xmlns="http://www.w3.org/2000/svg"
 width="1009.000000pt" height="821.000000pt" viewBox="0 0 1009.000000 821.000000"
 preserveAspectRatio="xMidYMid meet">

<g transform="translate(0.000000,821.000000) scale(0.100000,-0.100000)"
fill="#000000" stroke="none">
<path d="M7869 7719 c-22 -22 -39 -55 -332 -669 -823 -1725 -1023 -2134 -1067
-2183 -41 -46 -142 -107 -178 -107 -10 0 -12 255 -10 1308 3 1305 3 1307 24
1352 29 62 64 94 150 134 57 28 75 41 80 62 4 17 1 31 -9 41 -14 14 -40 15
-242 5 -170 -9 -279 -9 -435 0 -220 12 -240 10 -240 -31 0 -37 27 -53 135 -82
133 -37 193 -68 250 -132 54 -59 82 -131 95 -245 13 -115 13 -1871 0 -1892 -7
-11 -14 -12 -24 -5 -12 9 -2029 2200 -2156 2344 -51 57 -60 59 -195 41 -48 -7
-97 -6 -157 2 -67 9 -108 9 -175 0 -67 -9 -151 -9 -355 0 -292 12 -298 12
-298 -43 0 -39 28 -55 146 -85 143 -35 209 -87 240 -190 21 -71 21 -1614 -1
-1759 -77 -514 -413 -783 -980 -785 -603 -1 -979 301 -1045 840 -14 120 -14
1692 1 1761 16 75 66 122 161 150 94 27 118 43 118 74 0 18 -8 28 -26 35 -31
12 -176 12 -354 0 -90 -6 -201 -6 -335 2 -178 10 -204 9 -238 -5 -78 -33 -33
-82 111 -122 116 -31 157 -54 186 -105 21 -34 21 -51 27 -920 5 -740 8 -897
21 -960 79 -388 240 -621 527 -764 188 -94 377 -139 661 -156 270 -16 526 14
711 84 133 50 233 112 331 205 163 155 248 319 304 591 16 76 19 176 24 955 5
797 7 874 23 914 24 62 62 108 114 141 39 25 48 27 81 18 137 -38 236 -134
291 -282 56 -151 54 -114 58 -1147 3 -823 2 -966 -11 -1028 -37 -177 -109
-256 -277 -304 -63 -19 -89 -42 -89 -81 0 -38 26 -44 170 -35 170 10 447 10
610 -1 151 -9 170 -5 170 40 0 37 -28 56 -95 66 -99 14 -174 43 -215 84 -73
73 -70 30 -70 1080 0 979 0 981 41 965 9 -3 436 -468 950 -1033 1049 -1153
1068 -1174 1116 -1203 32 -20 39 -21 92 -9 62 13 389 18 634 10 139 -5 149 -4
163 14 21 29 17 64 -8 80 -13 7 -52 19 -88 26 -71 13 -125 37 -153 68 -46 50
-59 158 -32 249 15 52 281 625 310 670 9 13 30 33 48 43 31 19 55 20 595 20
637 0 612 3 658 -76 31 -52 254 -606 289 -717 51 -160 25 -210 -132 -261 -89
-29 -126 -74 -88 -106 19 -15 79 -17 330 -6 124 5 286 4 426 -3 124 -5 235 -8
247 -4 23 6 36 32 27 56 -8 20 -42 32 -135 51 -207 41 -258 100 -405 471 -37
93 -270 662 -519 1265 -249 602 -461 1116 -470 1142 -20 55 -52 98 -72 98 -8
0 -23 -9 -35 -21z m-51 -561 c18 -23 452 -1076 452 -1097 0 -14 -9 -25 -26
-31 -35 -14 -939 -13 -965 0 -10 6 -19 19 -19 30 0 17 480 1038 512 1090 15
23 31 26 46 8z"/>
<path d="M720 4225 l0 -65 4375 0 4375 0 0 65 0 65 -4375 0 -4375 0 0 -65z"/>
<path d="M5813 3965 c-103 -23 -160 -63 -198 -138 -40 -81 -33 -188 18 -261
41 -58 94 -82 351 -162 147 -45 207 -123 176 -227 -18 -62 -53 -102 -117 -134
-50 -24 -70 -28 -143 -28 -157 0 -246 67 -310 229 -9 25 -13 27 -25 15 -21
-21 18 -206 48 -233 l22 -19 -30 7 c-16 4 -44 18 -62 32 -30 23 -303 412 -303
432 0 5 14 15 30 22 42 18 114 100 128 148 29 96 4 194 -62 249 -68 56 -112
63 -377 63 -147 0 -240 -4 -244 -10 -6 -10 2 -14 72 -40 52 -20 55 -42 51
-461 -3 -359 -4 -378 -23 -399 -11 -12 -34 -28 -52 -35 -67 -28 -38 -35 153
-35 140 0 185 3 182 12 -3 7 -27 18 -54 25 -29 7 -58 23 -72 38 -22 26 -22 32
-20 203 l3 177 87 3 88 3 124 -189 c120 -182 172 -243 223 -263 13 -5 56 -9
94 -9 52 0 69 3 69 14 0 11 11 10 61 -5 113 -35 287 -21 390 31 129 67 186
226 125 355 -41 89 -117 135 -324 195 -130 38 -192 73 -215 123 -22 46 -21 82
3 131 35 73 106 106 225 106 118 0 205 -56 257 -164 39 -83 52 -74 44 30 -11
136 -14 147 -42 140 -13 -4 -50 2 -81 13 -80 27 -194 34 -270 16z m-625 -81
c70 -34 104 -85 110 -165 8 -107 -19 -168 -91 -206 -34 -17 -188 -30 -231 -19
l-26 6 0 194 c0 238 -3 232 110 222 50 -4 92 -15 128 -32z"/>
<path d="M8012 3913 c-82 -183 -406 -850 -421 -867 -9 -10 -31 -25 -48 -33
-61 -25 -37 -33 107 -33 116 0 140 2 140 15 0 8 -16 19 -40 25 -46 12 -64 39
-56 84 8 39 103 238 119 248 22 14 393 10 405 -4 13 -17 99 -230 106 -266 8
-35 -1 -46 -46 -65 -21 -9 -38 -21 -38 -26 0 -8 131 -11 413 -11 330 0 425 3
475 15 227 54 349 207 368 463 18 234 -125 425 -361 487 -77 20 -599 23 -593
3 3 -7 18 -16 34 -20 17 -4 41 -19 55 -34 l24 -26 3 -361 c2 -199 0 -382 -3
-406 -17 -114 -148 -126 -208 -18 -13 23 -102 234 -198 469 -127 313 -178 427
-190 428 -11 0 -27 -24 -47 -67z m1070 -13 c125 -39 228 -137 279 -268 20 -49
23 -76 24 -187 0 -144 -8 -183 -57 -265 -65 -107 -174 -162 -323 -163 -97 0
-151 11 -202 43 l-33 20 0 402 c0 222 4 409 9 416 23 37 188 38 303 2z m-972
-287 c39 -95 69 -177 65 -183 -8 -13 -312 -14 -320 -1 -6 10 9 45 104 245 36
74 66 125 71 120 4 -5 40 -86 80 -181z"/>
<path d="M730 3945 c0 -8 12 -18 28 -21 15 -4 39 -13 55 -21 l27 -14 0 -272
c0 -307 8 -375 51 -465 35 -71 89 -119 177 -154 50 -20 75 -22 207 -23 134 0
156 3 207 23 103 42 174 136 198 262 5 29 10 175 10 324 0 280 4 306 43 330
30 19 88 -20 117 -79 l25 -50 0 -340 c0 -388 0 -386 -80 -424 -25 -11 -45 -26
-45 -31 0 -6 59 -10 155 -10 125 0 155 3 155 14 0 8 -15 16 -36 19 -20 4 -47
16 -60 28 l-24 22 0 325 c0 192 4 322 9 320 5 -1 151 -158 324 -348 345 -379
361 -395 376 -385 8 4 11 144 11 450 0 244 3 450 6 459 3 9 21 25 40 37 19 11
34 25 34 30 0 5 -66 9 -151 9 -166 0 -180 -7 -90 -43 98 -40 96 -29 99 -408 2
-181 -1 -329 -5 -329 -4 0 -169 176 -367 390 l-358 390 -183 0 c-111 0 -186
-4 -190 -10 -6 -10 2 -14 74 -41 56 -21 61 -46 61 -327 0 -266 -8 -339 -46
-413 -56 -112 -204 -168 -364 -139 -111 20 -183 69 -228 154 l-27 51 -3 315
c-2 173 -1 324 2 336 4 14 21 28 46 38 72 29 48 36 -120 36 -135 0 -160 -2
-160 -15z"/>
<path d="M2772 3949 c2 -6 21 -17 43 -25 22 -7 45 -21 52 -31 10 -13 13 -111
13 -420 l0 -404 -25 -23 c-14 -13 -39 -26 -55 -30 -18 -3 -30 -12 -30 -21 0
-13 25 -15 175 -15 146 0 175 2 175 15 0 8 -14 17 -35 21 -19 3 -46 15 -60 26
l-25 19 0 414 0 414 26 20 c32 25 64 27 110 5 40 -19 30 2 244 -494 89 -206
170 -394 180 -416 23 -53 36 -60 54 -32 7 13 98 219 202 458 103 239 196 447
206 463 24 34 57 35 89 1 l24 -26 3 -362 c2 -199 -1 -384 -5 -412 -8 -45 -12
-51 -56 -74 -26 -14 -47 -28 -47 -32 0 -5 135 -8 300 -8 333 0 335 0 384 64
27 36 56 96 56 116 0 19 -22 10 -67 -30 -25 -21 -70 -49 -101 -60 -106 -40
-299 -52 -337 -20 -13 11 -15 40 -13 204 l3 191 132 3 c124 2 133 1 157 -20
14 -13 29 -39 34 -58 4 -19 15 -36 24 -38 14 -3 16 15 14 139 -1 152 -11 180
-38 110 -25 -62 -55 -72 -201 -69 l-122 3 -2 180 c-2 99 1 186 6 193 6 10 44
14 152 14 178 2 214 -10 224 -69 10 -56 14 -65 28 -61 16 6 24 47 26 126 l1
62 -430 0 c-370 0 -430 -2 -430 -15 0 -8 14 -17 35 -21 47 -8 59 -26 52 -77
-5 -43 -260 -671 -283 -696 -16 -17 -8 -32 -183 370 -77 180 -141 338 -141
353 0 15 10 35 25 48 14 12 25 25 25 30 0 4 -133 8 -296 8 -211 0 -295 -3
-292 -11z"/>
<path d="M6252 3949 c2 -6 21 -17 43 -25 22 -7 45 -21 52 -31 18 -23 19 -790
2 -827 -8 -16 -28 -32 -55 -42 -24 -9 -44 -23 -44 -30 0 -11 34 -14 176 -14
190 0 213 8 119 42 -27 9 -52 23 -57 30 -4 7 -8 198 -8 424 0 391 1 412 19
428 10 9 31 21 47 25 15 4 29 12 32 19 3 9 -38 12 -163 12 -117 0 -166 -3
-163 -11z"/>
<path d="M6625 3950 c-3 -6 2 -13 12 -16 108 -35 103 -12 103 -468 0 -271 -3
-393 -12 -411 -6 -14 -28 -33 -50 -42 -21 -9 -38 -21 -38 -26 0 -5 121 -7 283
-5 302 5 318 7 432 66 97 49 180 167 211 299 25 105 16 261 -18 335 -52 113
-164 207 -301 253 -73 24 -83 25 -346 25 -170 0 -272 -4 -276 -10z m488 -35
c248 -52 399 -285 359 -557 -29 -197 -134 -309 -318 -339 -120 -19 -284 21
-298 74 -3 12 -6 191 -6 397 0 402 2 418 50 431 43 12 142 9 213 -6z"/>
<path d="M720 2795 l0 -25 4375 0 4375 0 0 25 0 25 -4375 0 -4375 0 0 -25z"/>
<path d="M2513 2638 c-6 -7 -76 -150 -156 -318 -309 -649 -292 -616 -337 -636
-73 -33 -52 -42 101 -42 122 -1 140 1 137 14 -2 9 -21 22 -42 29 -45 16 -56
29 -56 68 0 39 103 252 128 266 27 15 356 15 383 0 22 -11 37 -43 93 -193 41
-109 39 -127 -19 -146 -19 -6 -35 -17 -35 -25 0 -10 36 -13 170 -13 135 -1
170 2 170 12 0 8 -16 17 -37 21 -84 15 -73 -6 -308 568 -92 224 -171 407 -175
407 -4 0 -12 -6 -17 -12z m58 -346 c37 -90 71 -172 74 -182 6 -19 1 -20 -159
-20 -114 0 -166 3 -166 11 0 22 165 359 174 356 5 -2 40 -76 77 -165z"/>
<path d="M7927 2538 c-195 -410 -392 -816 -405 -830 -8 -10 -30 -23 -48 -30
-19 -7 -34 -18 -34 -24 0 -18 282 -14 287 3 3 7 -12 16 -35 23 -49 13 -66 32
-66 73 0 38 89 234 117 260 17 15 42 17 199 17 172 0 180 -1 201 -23 28 -27
119 -251 115 -281 -2 -13 -18 -29 -42 -41 -21 -11 -39 -24 -40 -30 -1 -6 64
-11 172 -12 110 -2 172 1 172 8 0 5 -6 11 -12 13 -62 18 -105 39 -117 58 -8
13 -99 225 -201 472 -102 247 -191 451 -198 454 -7 2 -34 -43 -65 -110z m111
-253 c40 -96 72 -179 72 -185 0 -6 -58 -10 -166 -10 -160 0 -165 1 -159 20 13
42 165 350 173 350 4 0 40 -79 80 -175z"/>
<path d="M3633 2626 c-127 -31 -270 -141 -326 -251 -78 -156 -81 -351 -5 -499
26 -52 112 -142 164 -172 95 -56 148 -68 304 -68 151 0 231 13 320 52 69 30
80 42 95 107 26 108 17 121 -33 51 -84 -121 -273 -194 -430 -166 -211 37 -352
228 -352 480 0 149 46 267 133 345 74 67 139 88 272 89 105 1 114 -1 176 -31
76 -38 151 -112 199 -196 18 -31 37 -57 42 -57 12 0 7 208 -6 228 -5 8 -13 9
-25 2 -14 -7 -37 0 -97 31 -44 22 -110 46 -149 54 -84 18 -211 18 -282 1z"/>
<path d="M5435 2630 c-114 -23 -238 -96 -303 -177 -83 -105 -123 -259 -103
-391 22 -140 60 -220 145 -300 92 -87 211 -132 351 -132 261 0 459 142 520
371 17 62 19 204 4 268 -58 252 -338 416 -614 361z m208 -59 c261 -90 393
-427 269 -691 -111 -238 -434 -278 -633 -79 -202 202 -199 565 6 720 26 21 68
44 94 52 67 23 195 21 264 -2z"/>
<path d="M714 2618 c-9 -14 5 -26 41 -32 19 -4 48 -20 64 -36 53 -54 56 -74
56 -445 0 -391 0 -390 -80 -421 -25 -9 -44 -22 -42 -28 4 -13 304 -19 312 -6
7 11 -27 30 -55 30 -11 0 -32 11 -45 25 l-25 24 0 321 c0 250 3 320 13 319 6
0 133 -134 280 -297 368 -409 403 -445 416 -438 8 5 11 140 11 452 0 270 4
452 10 464 5 10 26 27 45 39 20 11 34 24 31 29 -8 13 -299 8 -303 -5 -3 -8 14
-17 42 -24 55 -14 102 -57 110 -102 3 -18 4 -171 3 -341 l-3 -309 -363 394
-363 395 -75 0 c-42 0 -78 -4 -80 -8z"/>
<path d="M4440 2613 c0 -7 18 -17 40 -23 72 -19 70 -7 70 -451 0 -373 -1 -398
-19 -420 -10 -13 -34 -28 -52 -34 -19 -7 -34 -18 -34 -26 0 -11 32 -14 173
-16 143 -1 172 1 172 12 0 9 -18 19 -44 26 -84 21 -81 2 -84 430 -3 444 -2
451 65 480 25 11 43 23 39 27 -4 3 -79 7 -167 7 -122 1 -159 -2 -159 -12z"/>
<path d="M6234 2618 c-9 -14 5 -25 36 -31 45 -10 79 -36 103 -81 21 -40 22
-50 22 -396 0 -400 2 -387 -77 -425 -22 -11 -40 -24 -39 -30 0 -6 59 -10 151
-10 147 0 188 10 124 29 -53 16 -72 28 -83 53 -17 38 -15 646 2 641 8 -2 154
-158 326 -348 337 -372 358 -393 372 -385 5 4 9 186 9 445 0 243 4 450 9 463
5 13 26 34 46 46 20 11 34 24 31 29 -3 5 -286 9 -305 3 -12 -4 25 -30 50 -35
48 -9 87 -43 99 -84 7 -24 10 -148 8 -351 l-3 -313 -362 394 -362 394 -76 0
c-42 0 -79 -4 -81 -8z"/>
<path d="M8762 2611 c2 -8 22 -21 46 -29 76 -25 73 -11 70 -454 -2 -216 -7
-401 -11 -410 -5 -9 -29 -26 -53 -38 -25 -11 -43 -24 -40 -29 3 -4 143 -8 312
-7 l306 1 49 53 c45 49 75 114 63 134 -3 5 -23 -7 -44 -26 -81 -73 -186 -106
-341 -106 -80 0 -99 3 -112 18 -15 17 -17 60 -17 410 0 271 3 399 11 416 7 14
28 32 51 41 73 29 43 38 -130 39 -137 1 -162 -1 -160 -13z"/>
<path d="M720 1465 l0 -25 4375 0 4375 0 0 25 0 25 -4375 0 -4375 0 0 -25z"/>
<path d="M920 1261 c-45 -14 -84 -39 -116 -73 -53 -55 -68 -95 -68 -178 -1
-116 46 -186 148 -225 57 -22 200 -17 263 10 36 14 44 23 54 57 13 52 7 57
-22 17 -56 -79 -203 -102 -287 -46 -60 39 -97 121 -96 212 1 130 65 203 186
212 81 6 138 -22 182 -89 17 -26 34 -47 39 -47 8 -1 9 55 1 86 -3 11 -16 23
-27 26 -12 3 -47 15 -77 26 -56 21 -134 26 -180 12z"/>
<path d="M1910 1255 c-57 -18 -114 -65 -143 -118 -31 -59 -31 -184 0 -243 47
-88 130 -129 245 -122 122 8 202 66 233 170 19 65 19 91 -1 159 -38 129 -189
199 -334 154z m168 -34 c49 -25 76 -56 103 -116 46 -102 21 -222 -58 -282 -32
-25 -45 -28 -108 -28 -61 0 -77 4 -113 28 -24 16 -54 49 -71 79 -116 203 51
420 247 319z"/>
<path d="M2882 1250 c-91 -41 -96 -171 -9 -216 17 -10 65 -27 106 -40 81 -25
121 -55 121 -91 0 -69 -68 -119 -150 -111 -59 6 -104 37 -126 88 -24 54 -36
37 -21 -30 11 -50 16 -56 47 -67 19 -7 61 -12 93 -12 130 -2 215 78 188 175
-16 58 -45 80 -149 115 -52 17 -103 40 -113 50 -45 45 -7 121 66 135 69 13
124 -17 172 -92 11 -18 12 -17 12 7 2 70 -8 84 -63 97 -73 17 -124 15 -174 -8z"/>
<path d="M4725 1034 c-84 -172 -120 -237 -135 -241 -43 -11 -17 -23 50 -23 67
0 93 12 50 23 -33 9 -34 34 -1 102 l30 66 103 -3 103 -3 17 -35 c28 -60 43
-113 33 -117 -21 -7 -39 -22 -33 -28 3 -3 43 -5 89 -3 l84 3 -36 16 c-34 16
-39 26 -130 248 -52 127 -98 231 -102 231 -4 0 -59 -106 -122 -236z m148 49
c19 -45 32 -84 29 -87 -8 -9 -150 -7 -155 2 -7 11 75 184 84 175 4 -4 23 -45
42 -90z"/>
<path d="M8190 1261 c-135 -44 -212 -177 -180 -311 28 -116 117 -180 250 -180
77 0 162 19 192 42 8 7 19 31 22 53 l7 40 -27 -34 c-36 -45 -116 -81 -178 -81
-125 0 -207 95 -208 241 -1 131 64 207 184 216 82 6 139 -22 183 -89 17 -26
33 -47 38 -47 4 -1 7 22 7 49 0 40 -4 52 -17 56 -10 3 -38 14 -63 26 -48 22
-169 33 -210 19z"/>
<path d="M9155 1037 c-80 -167 -117 -235 -133 -242 -39 -17 -24 -25 48 -25 67
0 93 12 50 23 -34 9 -35 36 -1 104 l31 64 102 -3 102 -3 29 -70 29 -69 -21
-17 c-11 -10 -21 -20 -21 -23 0 -3 39 -6 86 -6 54 0 83 4 79 10 -3 6 -14 10
-24 10 -10 0 -24 7 -31 15 -7 8 -53 115 -104 237 -50 122 -96 223 -101 224 -6
2 -60 -101 -120 -229z m144 54 c17 -40 31 -79 31 -87 0 -11 -17 -14 -74 -14
-41 0 -77 3 -80 8 -7 11 76 184 85 175 4 -4 21 -41 38 -82z"/>
<path d="M3674 1236 c-3 -13 -4 -37 -2 -52 l4 -29 13 32 c15 37 44 46 126 41
l50 -3 3 -203 2 -203 -30 -17 c-16 -9 -30 -20 -30 -24 0 -5 38 -8 85 -8 82 0
111 11 60 24 -33 8 -36 35 -33 251 l3 180 50 3 c77 5 114 -5 125 -34 14 -36
20 -29 20 21 l0 45 -220 0 -220 0 -6 -24z"/>
<path d="M6296 1251 c5 -5 18 -11 29 -13 19 -3 20 -12 23 -215 2 -204 2 -213
-18 -225 -35 -22 -22 -28 65 -28 47 0 85 3 85 8 0 4 -15 14 -33 22 l-32 15 -3
91 c-3 102 2 110 62 98 27 -4 40 -19 84 -89 65 -104 110 -145 157 -145 19 0
35 5 35 10 0 6 -6 10 -13 10 -7 0 -25 12 -39 28 -26 28 -138 186 -138 195 0 3
15 20 34 39 61 61 60 143 -3 185 -31 21 -45 23 -169 23 -81 0 -132 -4 -126 -9z
m230 -26 c67 -28 83 -131 27 -175 -19 -15 -40 -20 -84 -20 l-59 0 0 98 c0 54
3 102 7 105 11 12 72 8 109 -8z"/>
<path d="M7308 1245 l32 -14 0 -205 c0 -173 -2 -207 -16 -220 -8 -9 -20 -16
-25 -16 -5 0 -9 -4 -9 -10 0 -6 35 -10 85 -10 89 0 105 8 55 27 l-30 11 0 211
0 210 28 15 c26 14 22 15 -63 15 -86 0 -89 0 -57 -14z"/>
<path d="M720 525 l0 -65 4375 0 4375 0 0 65 0 65 -4375 0 -4375 0 0 -65z"/>
</g>
</svg>
